<svg width="1080" height="1080" viewBox="0 0 1080 1080" fill="none" xmlns="http://www.w3.org/2000/svg">
<rect width="1080" height="1080" fill="#FAFAFA"/>
<g opacity="0.1">
<path d="M540 540C625.678 540 695.133 470.545 695.133 384.867C695.133 299.189 625.678 229.734 540 229.734C454.322 229.734 384.867 299.189 384.867 384.867C384.867 470.545 454.322 540 540 540Z" stroke="black" stroke-width="40"/>
<path d="M695.133 602.053H706.054C728.737 602.06 750.637 610.349 767.64 625.363C784.642 640.377 795.577 661.083 798.39 683.591L810.521 780.518C811.612 789.25 810.834 798.114 808.237 806.522C805.641 814.93 801.286 822.69 795.462 829.286C789.637 835.882 782.476 841.164 774.454 844.781C766.432 848.398 757.733 850.268 748.933 850.266H331.067C322.267 850.268 313.568 848.398 305.546 844.781C297.524 841.164 290.363 835.882 284.539 829.286C278.714 822.69 274.359 814.93 271.763 806.522C269.166 798.114 268.388 789.25 269.479 780.518L281.579 683.591C284.393 661.073 295.337 640.358 312.353 625.342C329.368 610.327 351.283 602.045 373.977 602.053H384.867" stroke="black" stroke-width="40" stroke-linecap="round" stroke-linejoin="round"/>
</g>
</svg>
